<?xml version="1.0" standalone="no"?>
<!DOCTYPE svg PUBLIC "-//W3C//DTD SVG 20010904//EN"
 "http://www.w3.org/TR/2001/REC-SVG-20010904/DTD/svg10.dtd">
<svg version="1.0" xmlns="http://www.w3.org/2000/svg"
 width="576.000000pt" height="576.000000pt" viewBox="0 0 576.000000 576.000000"
 preserveAspectRatio="xMidYMid meet">
<metadata>
Created by potrace 1.11, written by Peter Selinger 2001-2013
</metadata>
<g transform="translate(0.000000,576.000000) scale(0.100000,-0.100000)"
fill="#000000" stroke="none">
<path d="M1526 4778 c-19 -17 -227 -508 -777 -1827 -687 -1650 -751 -1808
-746 -1848 6 -52 43 -104 90 -127 30 -13 74 -16 286 -16 271 0 294 4 340 54
19 21 131 391 557 1853 294 1006 534 1841 534 1856 0 16 -10 38 -25 52 -22 23
-31 25 -129 25 -95 0 -107 -2 -130 -22z"/>
<path d="M2702 4780 c-25 -24 -29 -38 -41 -145 -15 -147 -3 -155 219 -155 222
0 234 8 219 155 -12 107 -16 121 -41 145 -20 18 -35 20 -178 20 -143 0 -158
-2 -178 -20z"/>
<path d="M3975 4775 c-15 -14 -25 -36 -25 -52 0 -15 240 -850 534 -1856 426
-1462 538 -1832 557 -1853 46 -50 69 -54 340 -54 212 0 256 3 286 16 47 23 84
75 90 127 5 40 -59 198 -746 1848 -550 1319 -758 1810 -777 1827 -23 20 -35
22 -130 22 -98 0 -107 -2 -129 -25z"/>
<path d="M2634 4137 c-25 -22 -27 -31 -50 -238 -28 -254 -29 -281 -9 -319 29
-56 51 -60 305 -60 254 0 276 4 305 60 20 38 19 65 -9 319 -31 284 -5 261
-296 261 -214 0 -219 -1 -246 -23z"/>
<path d="M2584 3181 c-74 -34 -81 -55 -113 -360 -31 -283 -31 -305 8 -360 40
-56 70 -61 401 -61 331 0 361 5 401 61 39 55 39 77 9 360 -43 395 -25 379
-410 379 -227 0 -259 -2 -296 -19z"/>
<path d="M2480 2069 c-33 -13 -80 -58 -91 -88 -5 -13 -30 -216 -55 -450 -43
-409 -44 -428 -29 -469 10 -25 32 -54 53 -70 l35 -27 487 0 487 0 35 27 c21
16 43 45 53 70 15 41 14 60 -29 469 -25 234 -50 437 -55 450 -12 31 -59 75
-94 88 -37 14 -762 14 -797 0z"/>
</g>
</svg>
